<?xml version="1.0" encoding="UTF-8"?>
<!DOCTYPE svg PUBLIC "-//W3C//DTD SVG 1.1//EN" "http://www.w3.org/Graphics/SVG/1.1/DTD/svg11.dtd">
<svg xmlns="http://www.w3.org/2000/svg" xmlns:xlink="http://www.w3.org/1999/xlink" version="1.1" width="281px"
	height="421px" viewBox="-0.5 -0.5 281 421">
	<defs>
		<style>
			text {
				fill: black;
				text-anchor: middle;
				font-size: 11px;
			}

			text.relation-label {
				font-family: serif;
			}

			text.entity-label {
				font-family: sans-serif;
			}

			rect {
				fill: white;
			}

			path {
				stroke: black;
				stroke-miterlimit: 10;
			}
		</style>
	</defs>
	<g>
		<path d="M 120 60 L 83.53 114.7" fill="none" pointer-events="stroke" />
		<path d="M 80.62 119.07 L 81.59 111.3 L 83.53 114.7 L 87.42 115.19 Z" fill="black" pointer-events="all" />
		<g class="relation-label">
			<rect stroke="none" x="82" y="83" width="38" height="15" />
			<text x="99.53" y="93.95">依赖于</text>
		</g>
		<path d="M 160 60 L 196.47 114.7" fill="none" pointer-events="stroke" />
		<path d="M 199.38 119.07 L 192.58 115.19 L 196.47 114.7 L 198.41 111.3 Z" fill="black" pointer-events="all" />
		<g class="relation-label">
			<rect stroke="none" x="161" y="83" width="38" height="15" />
			<text x="179.47" y="93.95">依赖于</text>
		</g>
		<rect x="80" y="0" width="120" height="60" stroke="black" pointer-events="all" />
		<g>
			<text class="entity-label" font-weight="bold" x="139.5" y="27.5">main</text>
			<text class="entity-label" x="139.5" y="41.5">(executable)</text>
		</g>
		<path d="M 60 180 L 60 233.63" fill="none" pointer-events="stroke" />
		<path d="M 60 238.88 L 56.5 231.88 L 60 233.63 L 63.5 231.88 Z" fill="black" pointer-events="all" />
		<g class="relation-label">
			<rect stroke="none" x="42" y="204" width="38" height="15" />
			<text x="59.5" y="214">依赖于</text>
		</g>
		<rect x="0" y="120" width="120" height="60" stroke="black" pointer-events="all" />
		<g><text class="entity-label" font-weight="bold" x="59.5" y="154.5">main.o</text></g>
		<path d="M 220 180 L 220 233.63" fill="none" pointer-events="stroke" />
		<path d="M 220 238.88 L 216.5 231.88 L 220 233.63 L 223.5 231.88 Z" fill="black" pointer-events="all" />
		<g class="relation-label">
			<rect stroke="none" x="202" y="204" width="38" height="15" />
			<text x="219.5" y="214">依赖于</text>
		</g>
		<rect x="160" y="120" width="120" height="60" stroke="black" pointer-events="all" />
		<g><text class="entity-label" font-weight="bold" x="219.5" y="154.5">foo.o</text></g>
		<path d="M 80 300 L 116.47 354.7" fill="none" pointer-events="stroke" />
		<path d="M 119.38 359.07 L 112.58 355.19 L 116.47 354.7 L 118.41 351.3 Z" fill="black" pointer-events="all" />
		<g class="relation-label">
			<rect stroke="none" x="81" y="323" width="38" height="15" />
			<text x="99.47" y="333.95">依赖于</text>
		</g>
		<rect x="0" y="240" width="120" height="60" stroke="black" pointer-events="all" />
		<g><text class="entity-label" font-weight="bold" x="59.5" y="274.5">main.cpp</text></g>
		<path d="M 200 300 L 163.53 354.7" fill="none" pointer-events="stroke" />
		<path d="M 160.62 359.07 L 161.59 351.3 L 163.53 354.7 L 167.42 355.19 Z" fill="black" pointer-events="all" />
		<g class="relation-label">
			<rect stroke="none" x="162" y="323" width="38" height="15" />
			<text x="179.53" y="333.95">依赖于</text>
		</g>
		<rect x="160" y="240" width="120" height="60" stroke="black" pointer-events="all" />
		<g><text class="entity-label" font-weight="bold" x="219.5" y="274.5">foo.cpp</text></g>
		<rect x="80" y="360" width="120" height="60" stroke="black" pointer-events="all" />
		<g><text class="entity-label" font-weight="bold" x="139.5" y="394.5">foo.h</text></g>
	</g>
</svg>
